<svg xmlns="http://www.w3.org/2000/svg" viewBox="0 0 700 420">
  <defs>
    <linearGradient id="headerGrad" x1="0%" y1="0%" x2="100%" y2="0%">
      <stop offset="0%" style="stop-color:#2D3E4F"/>
      <stop offset="100%" style="stop-color:#3d5a73"/>
    </linearGradient>
  </defs>

  <!-- Background -->
  <rect width="700" height="420" fill="#fafafa"/>

  <!-- Title -->
  <text x="350" y="30" text-anchor="middle" font-family="system-ui, sans-serif" font-size="18" font-weight="700" fill="#2D3E4F">What's in a Housing Action Plan?</text>

  <!-- LEFT SIDE: Planning Hierarchy -->
  <text x="130" y="60" text-anchor="middle" font-family="system-ui, sans-serif" font-size="13" font-weight="600" fill="#666">PLANNING HIERARCHY</text>

  <!-- Vision -->
  <rect x="30" y="75" width="200" height="36" rx="18" fill="#2D3E4F"/>
  <text x="130" y="98" text-anchor="middle" font-family="system-ui, sans-serif" font-size="13" font-weight="600" fill="white">Vision</text>

  <!-- Arrow -->
  <path d="M130,111 L130,123" stroke="#2D3E4F" stroke-width="2" fill="none"/>
  <polygon points="130,128 125,120 135,120" fill="#2D3E4F"/>

  <!-- Goals -->
  <rect x="30" y="130" width="200" height="36" rx="18" fill="#0d9488"/>
  <text x="130" y="153" text-anchor="middle" font-family="system-ui, sans-serif" font-size="13" font-weight="600" fill="white">Goals</text>

  <!-- Arrow -->
  <path d="M130,166 L130,178" stroke="#0d9488" stroke-width="2" fill="none"/>
  <polygon points="130,183 125,175 135,175" fill="#0d9488"/>

  <!-- Objectives -->
  <rect x="30" y="185" width="200" height="36" rx="18" fill="#0891b2"/>
  <text x="130" y="208" text-anchor="middle" font-family="system-ui, sans-serif" font-size="13" font-weight="600" fill="white">Objectives</text>

  <!-- Arrow -->
  <path d="M130,221 L130,233" stroke="#0891b2" stroke-width="2" fill="none"/>
  <polygon points="130,238 125,230 135,230" fill="#0891b2"/>

  <!-- Strategies -->
  <rect x="30" y="240" width="200" height="36" rx="18" fill="#6366f1"/>
  <text x="130" y="263" text-anchor="middle" font-family="system-ui, sans-serif" font-size="13" font-weight="600" fill="white">Strategies</text>

  <!-- Arrow -->
  <path d="M130,276 L130,288" stroke="#6366f1" stroke-width="2" fill="none"/>
  <polygon points="130,293 125,285 135,285" fill="#6366f1"/>

  <!-- Actions -->
  <rect x="30" y="295" width="200" height="36" rx="18" fill="#d97706"/>
  <text x="130" y="318" text-anchor="middle" font-family="system-ui, sans-serif" font-size="13" font-weight="600" fill="white">Actions</text>

  <!-- Descriptions on left side -->
  <text x="30" y="355" font-family="system-ui, sans-serif" font-size="10" fill="#666">Vision: Where we want to be</text>
  <text x="30" y="368" font-family="system-ui, sans-serif" font-size="10" fill="#666">Goals: Broad outcomes</text>
  <text x="30" y="381" font-family="system-ui, sans-serif" font-size="10" fill="#666">Objectives: Measurable targets</text>
  <text x="30" y="394" font-family="system-ui, sans-serif" font-size="10" fill="#666">Strategies: Approaches to reach targets</text>
  <text x="30" y="407" font-family="system-ui, sans-serif" font-size="10" fill="#666">Actions: Specific steps to implement</text>

  <!-- Divider -->
  <line x1="260" y1="55" x2="260" y2="340" stroke="#ddd" stroke-width="1" stroke-dasharray="4,4"/>

  <!-- RIGHT SIDE: Pathways -->
  <text x="400" y="60" text-anchor="middle" font-family="system-ui, sans-serif" font-size="13" font-weight="600" fill="#666">PATHWAYS TO HOUSING OPPORTUNITY</text>

  <!-- New Construction -->
  <rect x="280" y="75" width="240" height="50" rx="8" fill="#ecfdf5" stroke="#10b981" stroke-width="2"/>
  <text x="300" y="97" font-family="system-ui, sans-serif" font-size="12" font-weight="600" fill="#065f46">🏗️ New Construction</text>
  <text x="300" y="113" font-family="system-ui, sans-serif" font-size="10" fill="#666">Creating housing that doesn't exist today</text>

  <!-- Preservation -->
  <rect x="280" y="135" width="240" height="50" rx="8" fill="#eff6ff" stroke="#3b82f6" stroke-width="2"/>
  <text x="300" y="157" font-family="system-ui, sans-serif" font-size="12" font-weight="600" fill="#1e40af">🛡️ Preservation</text>
  <text x="300" y="173" font-family="system-ui, sans-serif" font-size="10" fill="#666">Protecting existing affordable units</text>

  <!-- Conversion -->
  <rect x="280" y="195" width="240" height="50" rx="8" fill="#fef3c7" stroke="#d97706" stroke-width="2"/>
  <text x="300" y="217" font-family="system-ui, sans-serif" font-size="12" font-weight="600" fill="#92400e">🔄 Conversion</text>
  <text x="300" y="233" font-family="system-ui, sans-serif" font-size="10" fill="#666">Repurposing buildings into housing</text>

  <!-- Assistance -->
  <rect x="280" y="255" width="240" height="50" rx="8" fill="#fce7f3" stroke="#ec4899" stroke-width="2"/>
  <text x="300" y="277" font-family="system-ui, sans-serif" font-size="12" font-weight="600" fill="#9d174d">💰 Assistance Programs</text>
  <text x="300" y="293" font-family="system-ui, sans-serif" font-size="10" fill="#666">Helping households afford housing</text>

  <!-- BOTTOM: Implementation -->
  <text x="540" y="60" text-anchor="middle" font-family="system-ui, sans-serif" font-size="13" font-weight="600" fill="#666">IMPLEMENTATION</text>

  <rect x="540" y="75" width="140" height="230" rx="8" fill="#f8fafc" stroke="#94a3b8" stroke-width="1"/>

  <!-- Circular arrow suggesting cycle -->
  <path d="M610,120 A30,30 0 1,1 580,150" stroke="#2D3E4F" stroke-width="2" fill="none"/>
  <polygon points="577,145 585,155 575,155" fill="#2D3E4F"/>

  <text x="610" y="185" text-anchor="middle" font-family="system-ui, sans-serif" font-size="10" fill="#475569">Timelines</text>
  <text x="610" y="205" text-anchor="middle" font-family="system-ui, sans-serif" font-size="10" fill="#475569">Responsibilities</text>
  <text x="610" y="225" text-anchor="middle" font-family="system-ui, sans-serif" font-size="10" fill="#475569">Track Progress</text>
  <text x="610" y="245" text-anchor="middle" font-family="system-ui, sans-serif" font-size="10" fill="#475569">Adapt &amp; Learn</text>

  <text x="610" y="280" text-anchor="middle" font-family="system-ui, sans-serif" font-size="9" fill="#94a3b8" font-style="italic">A living document</text>

  <!-- Tools/Actions list -->
  <text x="400" y="330" text-anchor="middle" font-family="system-ui, sans-serif" font-size="11" font-weight="600" fill="#666">TOOLS &amp; ACTIONS</text>
  <text x="400" y="350" text-anchor="middle" font-family="system-ui, sans-serif" font-size="10" fill="#888">Policy changes • Funding • Land use updates</text>
  <text x="400" y="365" text-anchor="middle" font-family="system-ui, sans-serif" font-size="10" fill="#888">IGAs • Employer partnerships • Nonprofit collaborations</text>

</svg>